HIERARCHY
ROOT Hips
{
	OFFSET 0.000000 0.000000 0.000000
	CHANNELS 6 Xposition Yposition Zposition Xrotation Yrotation Zrotation
	JOINT LeftUpLeg_virtual
	{
		OFFSET 0.000000 0.000000 0.000000
		CHANNELS 3 Xrotation Yrotation Zrotation
		JOINT LeftUpLeg
		{
			OFFSET 13.026900 -6.336304 -1.092800
			CHANNELS 3 Xrotation Yrotation Zrotation
			JOINT LeftLeg
			{
				OFFSET 0.524474 -46.096886 9.782700
				CHANNELS 3 Xrotation Yrotation Zrotation
				JOINT LeftFoot
				{
					OFFSET -0.524474 -53.427422 -12.948200
					CHANNELS 3 Xrotation Yrotation Zrotation
					JOINT LeftToeBase
					{
						OFFSET 0.192200 -14.009700 16.364100
						CHANNELS 3 Xrotation Yrotation Zrotation
						JOINT LeftToe_End
						{
							OFFSET -1.784700 -0.561700 9.474800
							CHANNELS 3 Xrotation Yrotation Zrotation
							End Site
							{
								OFFSET 0 0 0
							}
						}
					}
				}
			}
		}
	}
	JOINT RightUpLeg_virtual
	{
		OFFSET 0.000000 0.000000 0.000000
		CHANNELS 3 Xrotation Yrotation Zrotation
		JOINT RightUpLeg
		{
			OFFSET -12.883000 -6.336304 -1.092800
			CHANNELS 3 Xrotation Yrotation Zrotation
			JOINT RightLeg
			{
				OFFSET -0.524587 -46.096825 9.782800
				CHANNELS 3 Xrotation Yrotation Zrotation
				JOINT RightFoot
				{
					OFFSET 0.524587 -53.427383 -12.948300
					CHANNELS 3 Xrotation Yrotation Zrotation
					JOINT RightToeBase
					{
						OFFSET -0.192200 -14.009700 16.364100
						CHANNELS 3 Xrotation Yrotation Zrotation
						JOINT RightToe_End
						{
							OFFSET 1.784700 -0.561700 9.474800
							CHANNELS 3 Xrotation Yrotation Zrotation
							End Site
							{
								OFFSET 0 0 0
							}
						}
					}
				}
			}
		}
	}
	JOINT Spine_virtual
	{
		OFFSET 0.000000 0.000000 0.000000
		CHANNELS 3 Xrotation Yrotation Zrotation
		JOINT Spine
		{
			OFFSET 0.072000 7.257294 -0.789700
			CHANNELS 3 Xrotation Yrotation Zrotation
			JOINT Spine1
			{
				OFFSET 0.000000 12.508769 -0.658067
				CHANNELS 3 Xrotation Yrotation Zrotation
				JOINT Spine1_split
				{
					OFFSET 0.000000 12.508769 -0.658067
					CHANNELS 3 Xrotation Yrotation Zrotation
					JOINT Spine2
					{
						OFFSET 0.000000 12.508769 -0.658067
						CHANNELS 3 Xrotation Yrotation Zrotation
						JOINT Neck_virtual
						{
							OFFSET 0.000000 0.000000 0.000000
							CHANNELS 3 Xrotation Yrotation Zrotation
							JOINT Neck
							{
								OFFSET 0.000000 14.033295 7.520400
								CHANNELS 3 Xrotation Yrotation Zrotation
								JOINT Head
								{
									OFFSET 0.000000 8.198502 5.703100
									CHANNELS 3 Xrotation Yrotation Zrotation
									JOINT HeadTop_End
									{
										OFFSET 0.000000 17.760803 13.332701
										CHANNELS 3 Xrotation Yrotation Zrotation
										End Site
										{
											OFFSET 0 0 0
										}
									}
								}
							}
						}
						JOINT LeftShoulder_virtual
						{
							OFFSET 0.000000 0.000000 0.000000
							CHANNELS 3 Xrotation Yrotation Zrotation
							JOINT LeftShoulder
							{
								OFFSET 6.292450 5.785301 -0.669000
								CHANNELS 3 Xrotation Yrotation Zrotation
								JOINT LeftShoulder_split
								{
									OFFSET 6.292450 5.785301 -0.669000
									CHANNELS 3 Xrotation Yrotation Zrotation
									JOINT LeftArm
									{
										OFFSET 13.907140 -6.093903 1.965100
										CHANNELS 3 Xrotation Yrotation Zrotation
										JOINT LeftForeArm
										{
											OFFSET 34.140198 0.000000 0.000000
											CHANNELS 3 Xrotation Yrotation Zrotation
											JOINT LeftHand
											{
												OFFSET 40.960209 0.000000 0.000000
												CHANNELS 3 Xrotation Yrotation Zrotation
												End Site
												{
													OFFSET 0 0 0
												}
											}
										}
									}
								}
							}
						}
						JOINT RightShoulder_virtual
						{
							OFFSET 0.000000 0.000000 0.000000
							CHANNELS 3 Xrotation Yrotation Zrotation
							JOINT RightShoulder
							{
								OFFSET -6.292450 5.785301 -0.669000
								CHANNELS 3 Xrotation Yrotation Zrotation
								JOINT RightShoulder_split
								{
									OFFSET -6.292450 5.785301 -0.669000
									CHANNELS 3 Xrotation Yrotation Zrotation
									JOINT RightArm
									{
										OFFSET -13.907140 -6.093903 1.965100
										CHANNELS 3 Xrotation Yrotation Zrotation
										JOINT RightForeArm
										{
											OFFSET -34.140198 0.000000 0.000000
											CHANNELS 3 Xrotation Yrotation Zrotation
											JOINT RightHand
											{
												OFFSET -40.960209 0.000000 0.000000
												CHANNELS 3 Xrotation Yrotation Zrotation
												End Site
												{
													OFFSET 0 0 0
												}
											}
										}
									}
								}
							}
						}
					}
				}
			}
		}
	}
}
MOTION
Frames: 7
Frame Time: 0.03333333
5.873489 116.947922 -7.179371 0.000000 0.000000 0.000000 -20.080020 -31.339469 -12.614364 -1.594031 19.155226 -0.613903 23.502782 8.733991 2.465718 -4.581153 3.902801 -4.532912 -7.949035 -2.031675 -0.305381 0.000000 0.000000 0.000000 -18.808575 -30.398785 -12.123394 9.620375 -9.546294 -0.218896 16.132027 16.913862 -3.350502 -12.569258 -23.663069 13.171913 -3.240996 5.013457 -10.923669 0.000000 0.000000 0.000000 -19.843385 -29.350385 -13.762003 8.682064 -3.632693 -0.765140 3.713848 -0.487981 -0.858677 0.118088 0.144347 -0.015540 0.000000 0.000000 0.000000 5.949037 1.416143 -0.695675 7.543639 7.630736 3.939432 -12.962142 -24.619946 14.157210 0.000000 0.000000 0.000000 6.034055 -0.695402 -0.917874 3.280887 -6.144602 -12.751328 6.827866 -8.841980 0.175709 -27.881201 12.694123 -34.153746 14.305300 -53.677740 10.436661 0.000000 0.000000 0.000000 4.645000 -0.728044 -0.221547 -2.835587 8.617308 20.201732 7.923148 1.757986 0.193479 -9.135085 1.582014 57.534918 -4.367314 41.405191 1.432690 0.000000 0.000000 0.000000 
6.711815 117.030380 -6.215542 0.000000 0.000000 0.000000 -20.651231 -34.158295 -13.513480 -0.993647 20.513660 -1.248284 22.608795 9.113535 2.286161 -4.851377 5.258300 -3.004147 -6.541339 -1.751172 -0.414802 0.000000 0.000000 0.000000 -19.296302 -32.748892 -12.956924 8.323078 -9.476437 -0.945137 16.057846 17.086251 -3.542116 -11.071782 -23.061321 13.531745 -4.073070 5.223460 -10.870623 0.000000 0.000000 0.000000 -20.482540 -32.050605 -14.772881 8.790640 -3.608094 -1.095218 3.634982 -0.523064 -0.918849 0.117612 0.115348 -0.011397 0.000000 0.000000 0.000000 5.881428 1.400473 -0.693548 7.495602 7.895295 3.856873 -13.133123 -23.408460 14.088109 0.000000 0.000000 0.000000 6.015225 -0.694004 -0.896662 3.294888 -6.162888 -12.689090 6.684541 -8.885160 0.036881 -27.773574 12.702462 -33.919792 14.229888 -53.590487 10.358823 0.000000 0.000000 0.000000 4.607214 -0.761447 -0.234809 -2.872206 8.789628 20.412145 8.065917 1.710688 0.218967 -9.526794 1.763411 57.642719 -4.417177 41.147635 1.349587 0.000000 0.000000 0.000000 
7.617721 117.077377 -5.264427 0.000000 0.000000 0.000000 -21.450443 -36.864341 -14.576699 -0.331416 21.483259 -1.788961 21.955899 9.021598 2.107449 -5.246664 6.263584 -2.344485 -5.612290 -1.475083 -0.560869 0.000000 0.000000 0.000000 -20.006157 -35.421528 -13.970819 7.076108 -9.446331 -1.453178 16.121369 16.755311 -3.610502 -10.010927 -22.546198 13.177480 -4.593578 5.374791 -10.494157 0.000000 0.000000 0.000000 -21.091226 -34.742307 -15.867988 8.830618 -3.594076 -1.395654 3.560263 -0.562000 -0.961485 0.137710 0.083590 -0.003338 0.000000 0.000000 0.000000 5.859890 1.369309 -0.677471 7.467424 8.190509 3.790675 -13.484603 -22.170751 13.982024 0.000000 0.000000 0.000000 6.036944 -0.697400 -0.863442 3.325477 -6.090050 -12.600593 6.604557 -8.940658 -0.081675 -27.690994 12.657437 -33.757735 14.154584 -53.571055 10.282735 0.000000 0.000000 0.000000 4.618283 -0.804914 -0.253287 -2.908502 8.960401 20.605619 8.243459 1.770559 0.243928 -9.873381 1.955664 57.740814 -4.441047 40.930301 1.240608 0.000000 0.000000 0.000000 
8.547877 117.071152 -4.316605 0.000000 0.000000 0.000000 -22.462501 -39.318093 -15.830430 0.238496 22.251122 -2.137121 21.578509 8.631440 1.934277 -5.635300 6.871995 -2.427129 -5.280525 -1.198249 -0.819062 0.000000 0.000000 0.000000 -20.940890 -38.342250 -15.229555 5.887521 -9.304135 -1.635871 16.378121 15.930586 -3.574519 -9.374623 -22.130563 12.205728 -4.689695 5.425740 -9.759251 0.000000 0.000000 0.000000 -21.730725 -37.427213 -17.078403 8.800435 -3.589665 -1.628299 3.486387 -0.604981 -0.994682 0.169273 0.045221 0.010363 0.000000 0.000000 0.000000 5.894204 1.331030 -0.655677 7.453185 8.502228 3.778918 -13.951914 -20.983361 13.933752 0.000000 0.000000 0.000000 6.093468 -0.706059 -0.829616 3.368675 -5.927570 -12.498170 6.599054 -9.002515 -0.139223 -27.654411 12.576160 -33.683139 14.096803 -53.577653 10.215542 0.000000 0.000000 0.000000 4.658192 -0.857419 -0.278885 -2.948872 9.120709 20.809667 8.454031 1.880886 0.228662 -10.159184 2.155193 57.807272 -4.430103 40.733961 1.104822 0.000000 0.000000 0.000000 
9.483066 117.008957 -3.369205 0.000000 0.000000 0.000000 -23.566683 -41.626735 -17.267751 0.878746 23.156565 -2.331883 21.365993 8.328587 1.783361 -6.177994 7.136345 -2.493607 -5.282504 -0.986679 -1.056892 0.000000 0.000000 0.000000 -22.048354 -41.358377 -16.710415 4.735586 -8.921666 -1.523064 16.903144 14.822800 -3.469715 -9.065957 -21.743065 11.126003 -4.639063 5.392975 -8.758082 0.000000 0.000000 0.000000 -22.441777 -40.050269 -18.400383 8.751613 -3.594346 -1.776024 3.411876 -0.646140 -1.038903 0.188751 -0.002417 0.030850 0.000000 0.000000 0.000000 5.988755 1.292026 -0.641856 7.437095 8.806944 3.838161 -14.481266 -19.911839 14.011099 0.000000 0.000000 0.000000 6.165546 -0.717881 -0.810770 3.422723 -5.679934 -12.384017 6.648169 -9.083129 -0.147996 -27.689742 12.485834 -33.683853 14.052088 -53.572473 10.158489 0.000000 0.000000 0.000000 4.695451 -0.920403 -0.311782 -2.997476 9.259901 21.034800 8.681117 1.966564 0.170266 -10.383219 2.355718 57.857665 -4.390145 40.555905 0.959052 0.000000 0.000000 0.000000 
10.327615 116.922241 -2.537659 0.000000 0.000000 0.000000 -24.728927 -43.950737 -18.870298 1.508724 24.451466 -2.303317 21.320062 8.171796 1.587119 -6.911718 7.062028 -2.332703 -4.990311 -0.859776 -1.226220 0.000000 0.000000 0.000000 -23.273858 -44.265377 -18.354918 3.631453 -8.298874 -1.191717 17.910108 13.548813 -3.348427 -8.991685 -21.405265 10.349053 -4.636829 5.284332 -7.666787 0.000000 0.000000 0.000000 -23.202344 -42.540781 -19.774726 8.753094 -3.622455 -1.852077 3.330368 -0.678345 -1.102587 0.191791 -0.060154 0.036714 0.000000 0.000000 0.000000 6.119754 1.258617 -0.642243 7.400422 9.089356 3.959216 -15.034759 -18.983502 14.240423 0.000000 0.000000 0.000000 6.237311 -0.726386 -0.818636 3.486913 -5.363477 -12.291150 6.727366 -9.210980 -0.110882 -27.811849 12.399338 -33.738734 14.020852 -53.531492 10.118258 0.000000 0.000000 0.000000 4.708690 -0.990676 -0.355258 -3.053166 9.354455 21.262971 8.907102 2.028147 0.055328 -10.552623 2.555652 57.925140 -4.332251 40.405487 0.824673 0.000000 0.000000 0.000000 
11.035436 116.777847 -1.893173 0.000000 0.000000 0.000000 -25.959660 -46.355169 -20.579135 2.068498 26.262026 -2.015667 21.377039 8.043162 1.284596 -7.859470 6.526448 -2.005029 -4.471368 -0.860158 -1.127817 0.000000 0.000000 0.000000 -24.578079 -47.016277 -20.112831 2.795346 -7.598849 -0.717119 19.431528 12.076206 -3.197179 -9.446152 -21.276418 9.861057 -4.334128 5.083034 -6.719989 0.000000 0.000000 0.000000 -24.058098 -44.844140 -21.196671 8.869644 -3.677967 -1.881928 3.244264 -0.684851 -1.180034 0.168837 -0.109375 0.035993 0.000000 0.000000 0.000000 6.258775 1.237703 -0.661414 7.347194 9.324086 4.110741 -15.573777 -18.185956 14.602864 0.000000 0.000000 0.000000 6.295990 -0.725270 -0.853678 3.558930 -5.007708 -12.238577 6.814706 -9.371969 -0.043156 -28.028837 12.303170 -33.819251 14.019443 -53.461981 10.117298 0.000000 0.000000 0.000000 4.690766 -1.053930 -0.406687 -3.113500 9.398326 21.452610 9.098896 2.038009 -0.065678 -10.679497 2.738276 58.044047 -4.277607 40.302590 0.730286 0.000000 0.000000 0.000000 
